<?xml version="1.0" encoding="utf-8"?>
<!-- Generator: Adobe Illustrator 22.1.0, SVG Export Plug-In . SVG Version: 6.00 Build 0)  -->
<svg version="1.1" id="Layer_1" xmlns="http://www.w3.org/2000/svg" xmlns:xlink="http://www.w3.org/1999/xlink" x="0px" y="0px"
	 viewBox="0 0 492.2 390.5" style="enable-background:new 0 0 492.2 390.5;" xml:space="preserve">
<style type="text/css">
	.st0{fill:#FFFFFF;}
</style>
<g id="XMLID_1_">
	<path id="XMLID_22_" class="st0" d="M102.6,144.1c-13.4,5.4-15.5,4.2-16.6-9.2c-0.8-9.5-1.1-19.1-1.8-28.6
		c-0.2-2.9-0.8-5.9-1.4-10.3c-3.6,4.5-6.4,7.9-9.1,11.4C63.1,121,54.5,136,46.6,151.4c-6.3,12.3-12.9,24.4-21.5,35.1
		C18.9,194.3,10.5,199,0,199.8c2.8-2.5,5.8-4.8,8.3-7.5c8.3-9,13.2-20.1,18.4-31c7.5-15.6,15.2-31.2,25.2-45.4
		c4.2-5.9,9-11.5,13.5-17.1c5.2-6.4,10.6-12.6,14.1-20.4c3-6.8,9.5-7.5,13.7-2c0.7,0.9,1.2,2.2,1.3,3.3
		C96.7,101.1,96.9,122.7,102.6,144.1z"/>
	<path id="XMLID_19_" class="st0" d="M341.8,111c-7.6-0.6-14.1-0.7-20.5-1.7c-7.6-1.2-10.1-6.3-6.1-13c6.2-10.4,15.6-16.8,27.8-18.7
		c6.5-1,11.1,2.1,14.1,7.7c0.8,1.5,1.4,3.2,2.2,5c5,0.1,10,0.4,10.1,7.5c-1,0.8-2,2.1-3.3,2.6c-6.1,2-7.2,7.4-9.5,12.4
		c-4.5,9.8-9.5,19.4-15.3,28.4c-13.3,20.9-31.3,37.8-48.6,55.2c-5.7,5.7-12.7,4.3-19.2,5.9c-1.6-4.1,0.4-6,2.7-7.7
		c23.1-16.7,41-38.1,55.8-62.2C335.9,125.7,339.6,119,341.8,111z M327.8,100.7c6,2.7,11.8,2.3,15.4-1.3c2.9-2.9,1.1-7.9-2.1-11.8
		C335.1,90.1,330.3,93.7,327.8,100.7z"/>
	<g id="XMLID_14_">
		<path id="XMLID_16_" class="st0" d="M399,105.5c-3.6-1.7-6.7-2.8-9.4-4.5c-5.3-3.3-6.7-9.5-2.8-14.2c5.2-6.2,11.9-10,20.2-9.9
			c6.5,0,10.2,3.6,11,10c0.2,2,0.2,4,0,6c-0.2,1.9-0.6,3.8-1.1,6.2c7.1,0.3,13.4-1,19.2-3.9c1.6-0.8,2.5-3.6,3-5.6
			c1.8-6.9,5.2-9.6,10.8-7.9c5.2,1.5,7.5,7.7,5.1,13.6c-0.4,0.9-0.8,1.7-1.1,2.6c3.3,3.9,7,4.1,11.1,2.3c6.4-2.8,11.8-6.8,15-13.1
			c1.3-2.6,2.8-4.7,6-5c4.2-0.3,7.1,3.6,5.6,7.4c-6,14.9-28.9,24.7-43.4,17.8c-5.6-2.7-10.5-3.2-16.3-2.1c-5.6,1-11.4,1.4-17.7,2.1
			c-6.3,15.9-12.7,32-19,48.1c-5.2,13.4-5.5,17.2-13.4,29.3c-2.2,3.4-4.9,6.4-7.2,9.7c-6,8.5-15.1,7.9-23.8,8.1
			c-2.9,0.1,10.5-11.3,13.6-16c4.9-7.3,5.8-6.5,9.3-14.5c8.8-20.5,15.5-40.2,23.7-61C398.2,109.3,398.5,107.6,399,105.5z
			 M402.6,87.1c-6.8,2.9-5.6,8,0,8C404.9,95,408,85.7,402.6,87.1z"/>
		<path id="XMLID_15_" class="st0" d="M456,10.2c-12.7,10.7-24.8,21.6-37.6,31.6c-5.5,4.3-12.5,6.7-18.8,10c-0.3-0.4-0.7-0.8-1-1.3
			c0.7-1.1,1.1-2.4,2-3.3c11.5-11.6,23-23.1,34.5-34.6c2-2,4-3.8,5.9-5.8C447.3,0,451.7,0.8,456,10.2z"/>
	</g>
	<g id="XMLID_9_">
		<path id="XMLID_11_" class="st0" d="M205,105.5c-3.6-1.7-6.7-2.8-9.4-4.5c-5.3-3.3-6.7-9.5-2.8-14.2c5.2-6.2,11.9-10,20.2-9.9
			c6.5,0,10.2,3.6,11,10c0.2,2,0.2,4,0,6c-0.2,1.9-0.6,3.8-1.1,6.2c7.1,0.3,13.4-1,19.2-3.9c1.6-0.8,2.5-3.6,3-5.6
			c1.8-6.9,5.2-9.6,10.8-7.9c5.2,1.5,7.5,7.7,5.1,13.6c-0.4,0.9-0.8,1.7-1.1,2.6c3.3,3.9,7,4.1,11.1,2.3c6.4-2.8,11.8-6.8,15-13.1
			c1.3-2.6,2.8-4.7,6-5c4.2-0.3,7.1,3.6,5.6,7.4c-6,14.9-28.9,24.7-43.4,17.8c-5.6-2.7-10.5-3.2-16.3-2.1c-5.6,1-11.4,1.4-17.7,2.1
			c-6.3,15.9-12.7,32-19,48.1c-5.2,13.4-5.5,17.2-13.4,29.3c-2.2,3.4-4.9,6.4-7.2,9.7c-6,8.5-15.1,7.9-23.8,8.1
			c-2.9,0.1,10.5-11.3,13.6-16c4.9-7.3,5.8-6.5,9.3-14.5c8.8-20.5,15.5-40.2,23.7-61C204.2,109.3,204.4,107.6,205,105.5z
			 M208.6,87.1c-6.8,2.9-5.6,8,0,8C210.8,95,214,85.7,208.6,87.1z"/>
		<path id="XMLID_10_" class="st0" d="M261.9,10.2c-12.7,10.7-24.8,21.6-37.6,31.6c-5.5,4.3-12.5,6.7-18.8,10
			c-0.3-0.4-0.7-0.8-1-1.3c0.7-1.1,1.1-2.4,2-3.3c11.5-11.6,23-23.1,34.5-34.6c2-2,4-3.8,5.9-5.8C253.3,0,257.7,0.8,261.9,10.2z"/>
	</g>
	<path id="XMLID_8_" class="st0" d="M176.6,10.2c-12.7,10.7-24.8,21.6-37.6,31.6c-5.5,4.3-12.5,6.7-18.8,10c-0.3-0.4-0.7-0.8-1-1.3
		c0.7-1.1,1.1-2.4,2-3.3c11.5-11.6,23-23.1,34.5-34.6c2-2,4-3.8,5.9-5.8C167.9,0,172.3,0.8,176.6,10.2z"/>
	<path id="XMLID_7_" class="st0" d="M65.5,191.3c-6.4,9-12.8,17.6-18.9,26.5c-5.8,8.6-14.3,13.2-24.2,16.6
		c11-17.1,22.1-34.1,33.2-51.3C60.2,185.1,64.1,186.2,65.5,191.3z"/>
	<path id="XMLID_6_" class="st0" d="M293.9,51.8c1.8-1.9,3.6-3.8,5.5-5.6C313.7,32.1,328,18,342.2,3.8c5.9-5.9,10.7-5.1,13.8,3.1
		c-18.3,17.9-38.4,33.6-61,46C294.6,52.6,294.3,52.2,293.9,51.8z"/>
	<path id="XMLID_5_" class="st0" d="M312.3,70.1c1.8-1.9,3.6-3.8,5.5-5.6c14.3-14.1,28.6-28.1,42.8-42.3c5.9-5.9,10.7-5.1,13.8,3.1
		c-18.3,17.9-38.4,33.6-61,46C313,70.9,312.7,70.5,312.3,70.1z"/>
	<path id="XMLID_2_" class="st0" d="M147.5,111c-7.6-0.6-14.1-0.7-20.5-1.7c-7.6-1.2-10.1-6.3-6.1-13c6.2-10.4,15.6-16.8,27.8-18.7
		c6.5-1,11.1,2.1,14.1,7.7c0.8,1.5,1.4,3.2,2.2,5c5,0.1,10,0.4,10.1,7.5c-1,0.8-2,2.1-3.3,2.6c-6.1,2-7.2,7.4-9.5,12.4
		c-4.5,9.8-9.5,19.4-15.3,28.4c-13.3,20.9-31.3,37.8-48.6,55.2c-5.7,5.7-12.7,4.3-19.2,5.9c-1.6-4.1,0.4-6,2.7-7.7
		c23.1-16.7,41-38.1,55.8-62.2C141.6,125.7,145.2,119,147.5,111z M133.5,100.7c6,2.7,11.8,2.3,15.4-1.3c2.9-2.9,1.1-7.9-2.1-11.8
		C140.7,90.1,136,93.7,133.5,100.7z"/>
</g>
<g id="XMLID_128_">
	<path id="XMLID_131_" class="st0" d="M265.9,390.5c-10.4-8.2-20.2-7.6-30.5,0c4-12,2-21.4-9.3-28.8c12.5-0.4,21.2-4.9,24.5-17.9
		c4.3,12,11.8,18.2,24.9,17.7C264.5,369,262,378.4,265.9,390.5z"/>
	<path id="XMLID_130_" class="st0" d="M370.2,390.5c-10.4-8.2-20.2-7.6-30.5,0c4-12,2-21.4-9.3-28.8c12.5-0.4,21.2-4.9,24.5-17.9
		c4.3,12,11.8,18.2,24.9,17.7C368.8,369,366.3,378.4,370.2,390.5z"/>
	<path id="XMLID_129_" class="st0" d="M161.6,390.5c-10.4-8.2-20.2-7.6-30.5,0c4-12,2-21.4-9.3-28.8c12.5-0.4,21.2-4.9,24.5-17.9
		c4.3,12,11.8,18.2,24.9,17.7C160.2,369,157.7,378.4,161.6,390.5z"/>
</g>
</svg>
